# xmcd
#
# Track frame offsets:
#	150
#	43004
#	101501
#	139142
#
# Disc length: 2658 seconds
# Revision: 1
# Processed by: cddbd v1.5.2PL0 Copyright (c) Steve Scherf et al.
# Submitted via: dBpowerAMP V12.0
#
DISCID=300a6004
DTITLE=Lester Levenson - A Fireside Chat with Lester Levenson CD 02
DYEAR=1974
DGENRE=Home Study
TTITLE0=Attachments and Aversions pt 1
TTITLE1=Attachments and Aversions pt 2
TTITLE2=Ridding Yourself of Limitations pt 1
TTITLE3=Ridding Yourself of Limitations pt 2
EXTD=
EXTT0=
EXTT1=
EXTT2=
EXTT3=
PLAYORDER=
